Coordinates
version=1
nRows=24
nColumns=24
inDegrees=yes

Units are S.I. units (second, meters, Newtons, ...)
Angles are in degrees.

endheader
time	pelvis_tilt	pelvis_list	pelvis_rotation	pelvis_tx	pelvis_ty	pelvis_tz	hip_flexion_r	hip_adduction_r	hip_rotation_r	knee_angle_r	ankle_angle_r	subtalar_angle_r	mtp_angle_r	hip_flexion_l	hip_adduction_l	hip_rotation_l	knee_angle_l	ankle_angle_l	subtalar_angle_l	mtp_angle_l	lumbar_extension	lumbar_bending	lumbar_rotation
      0.70400000	     -2.73121928	      7.08555878	     11.15162339	      0.06981013	      0.97306601	      0.28007873	     29.94769308	    -11.39847359	     -7.56716169	     -1.47381678	      9.00401280	     -9.83769490	      6.76451332	    -21.72354645	      6.90455051	     16.11958174	     -0.72709186	      8.96404589	    -13.49041745	      8.66574852	     -0.94160051	     -8.26880499	     -2.79357018
      0.70816667	     -2.74512372	      7.05731960	     11.28156235	      0.07572585	      0.97253252	      0.28043876	     29.93957875	    -11.38998074	     -7.48320727	     -1.88178301	      9.14526944	     -9.87217617	      6.74566785	    -21.88312145	      6.75571473	     16.16428562	     -1.04153382	      8.86438505	    -13.38438112	      8.70282198	     -0.93248822	     -8.21599236	     -2.86355143
      0.71233333	     -2.75260826	      7.01701516	     11.40957336	      0.08171310	      0.97204839	      0.28081540	     29.90446400	    -11.36002982	     -7.38110543	     -2.28829298	      9.19722981	    -10.02331538	      6.73201483	    -22.03443521	      6.59498079	     16.17816476	     -1.38223265	      8.75154341	    -13.26574906	      8.74543308	     -0.90458725	     -8.14598989	     -2.96538557
      0.71650000	     -2.76509208	      6.95479136	     11.53071494	      0.08776267	      0.97159126	      0.28121351	     29.87178424	    -11.30186241	     -7.29939922	     -2.71631768	      9.16768526	    -10.15347534	      6.72803530	    -22.16961763	      6.41639084	     16.19638446	     -1.73575896	      8.61007927	    -13.19600848	      8.76746820	     -0.89102854	     -8.06603430	     -3.01939322
      0.72066667	     -2.78154498	      6.89096567	     11.64144970	      0.09387802	      0.97116216	      0.28166067	     29.81141740	    -11.22400654	     -7.09082329	     -3.10516747	      9.08381801	    -10.46796242	      6.72637336	    -22.27214507	      6.23992542	     16.11588868	     -2.14479151	      8.49891659	    -12.92202080	      8.87293896	     -0.83653133	     -7.96679280	     -3.25602417
      0.72483333	     -2.78765564	      6.81311889	     11.74882179	      0.10004081	      0.97079302	      0.28208676	     29.76716489	    -11.13551551	     -7.04012729	     -3.57162730	      8.96059120	    -10.58044959	      6.72776723	    -22.38588091	      6.05466448	     16.11249365	     -2.54849928	      8.33558203	    -12.87619599	      8.90230516	     -0.80848761	     -7.86924226	     -3.27655506
      0.72900000	     -2.80851395	      6.71490107	     11.84589057	      0.10627152	      0.97043857	      0.28257612	     29.69925175	    -11.00654929	     -6.83684056	     -3.96845633	      8.69633292	    -10.97749246	      6.76638676	    -22.43605833	      5.85521079	     15.95387425	     -3.03951768	      8.24460392	    -12.54063835	      9.12673081	     -0.73245395	     -7.73900137	     -3.44735210
      0.73316667	     -2.83033640	      6.59936166	     11.92797064	      0.11259669	      0.97011732	      0.28304936	     29.65925402	    -10.86112332	     -6.75673092	     -4.43535047	      8.48501291	    -11.12561737	      6.79574487	    -22.50605841	      5.64493268	     15.86905545	     -3.47586352	      7.98441622	    -12.42441164	      9.25130265	     -0.63747407	     -7.58256904	     -3.49603556
      0.73733333	     -2.85253178	      6.48623518	     12.00439157	      0.11890811	      0.96983546	      0.28357975	     29.61370423	    -10.70432208	     -6.59464918	     -4.89362012	      8.16165901	    -11.50400868	      6.88982852	    -22.52217229	      5.44546430	     15.71229933	     -4.02257349	      7.86037193	    -12.16969198	      9.57960578	     -0.55798370	     -7.44722008	     -3.59646626
      0.74150000	     -2.87385605	      6.34982543	     12.07996253	      0.12530730	      0.96959632	      0.28407044	     29.58838475	    -10.53616356	     -6.59449334	     -5.40599197	      7.82948117	    -11.59170270	      8.32220713	    -22.52310442	      5.22350944	     15.49789173	     -4.57795375	      7.61247184	    -11.91519605	     14.01600174	     -0.45945808	     -7.27409750	     -3.58556010
      0.74566667	     -2.89249039	      6.20462832	     12.10703048	      0.13177239	      0.96938242	      0.28462430	     29.56369557	    -10.32850922	     -6.47888560	     -5.91395087	      7.50014515	    -11.79643258	      8.32082375	    -22.55311938	      5.01402677	     15.37429540	     -5.08004790	      7.24107666	    -11.91990762	     14.04205954	     -0.34227757	     -7.08401161	     -3.66699735
      0.74983333	     -2.92929864	      6.04449795	     12.14859907	      0.13823737	      0.96920188	      0.28520990	     29.54889194	    -10.10704026	     -6.33142701	     -6.40992693	      7.06182217	    -12.19105022	      8.34177969	    -22.50307619	      4.79342779	     15.19013598	     -5.69915196	      6.99621893	    -11.75132960	     14.15274960	     -0.21824062	     -6.89596686	     -3.73177678
      0.75400000	     -2.96197304	      5.86686949	     12.16407706	      0.14476259	      0.96905542	      0.28580250	     29.55663981	     -9.86376622	     -6.24540332	     -6.95655287	      6.65052572	    -12.42311545	      8.38377278	    -22.43993700	      4.56659612	     14.94738210	     -6.33918691	      6.69459363	    -11.55917997	     14.31381789	     -0.07647796	     -6.67493276	     -3.74868632
      0.75816667	     -2.99280946	      5.68315212	     12.16263387	      0.15131483	      0.96894480	      0.28642314	     29.57696734	     -9.60810350	     -6.16042716	     -7.52972061	      6.22638452	    -12.64446484	      8.44859784	    -22.35493446	      4.34246967	     14.67389936	     -7.01934536	      6.36393830	    -11.36472875	     14.54320039	      0.06768433	     -6.44882301	     -3.75904367
      0.76233333	     -3.02859514	      5.49136565	     12.14438392	      0.15788844	      0.96886357	      0.28706112	     29.62291497	     -9.34163895	     -6.08610007	     -8.14360973	      5.81769789	    -12.82850849	      8.53234786	    -22.23896014	      4.12208622	     14.37292247	     -7.74122724	      6.00100342	    -11.17132544	     14.84167048	      0.22362854	     -6.21131224	     -3.75312531
      0.76650000	     -3.06029338	      5.29327617	     12.10677142	      0.16447815	      0.96882150	      0.28772501	     29.68305364	     -9.06278017	     -6.01118414	     -8.79295759	      5.42206309	    -12.99295536	      8.63872955	    -22.09944042	      3.90400374	     14.02845240	     -8.50931487	      5.61200624	    -10.95527410	     15.24461635	      0.38080850	     -5.96376803	     -3.73382590
      0.77066667	     -3.04618372	      5.08582167	     12.05896859	      0.17108383	      0.96888356	      0.28838920	     29.70629759	     -8.77298852	     -6.00655473	     -9.46750679	      5.01675917	    -13.05501160	      9.97411885	    -21.99148010	      3.66802709	     13.66280499	     -9.28331123	      5.08991450	    -10.81585253	     20.85066195	      0.47557093	     -5.69680870	     -3.76208975
      0.77483333	     -3.07887201	      4.88837791	     11.97068413	      0.17769355	      0.96888964	      0.28910972	     29.81728552	     -8.48180648	     -5.91897711	    -10.21565591	      4.71498741	    -13.15056668	      9.95892369	    -21.81231663	      3.47807088	     13.29510638	    -10.11843876	      4.61331041	    -10.69914011	     20.90943952	      0.64177303	     -5.44697465	     -3.68653084
      0.77900000	     -3.09375614	      4.67669547	     11.87923110	      0.18431017	      0.96896072	      0.28983919	     29.91349985	     -8.17666091	     -5.86197044	    -10.97857130	      4.42689830	    -13.20586256	      9.94760183	    -21.61225738	      3.26851686	     12.86970081	    -11.01559173	      4.12654651	    -10.47944634	     21.03270484	      0.78484318	     -5.17384843	     -3.64005175
      0.78316667	     -3.10249285	      4.46608077	     11.77082343	      0.19092050	      0.96906664	      0.29059143	     30.01859041	     -7.86795446	     -5.80457810	    -11.77383563	      4.17383642	    -13.23015029	      9.93710437	    -21.39088292	      3.06491362	     12.41234048	    -11.95932712	      3.60696840	    -10.25191181	     21.22564451	      0.92259868	     -4.90152956	     -3.58901189
      0.78733333	     -3.06492492	      4.25334807	     11.63469695	      0.19754177	      0.96928077	      0.29135562	     30.07536781	     -7.54151252	     -5.74350690	    -12.57191815	      3.95210608	    -13.20258953	      9.93207064	    -21.22819907	      2.86498973	     12.01244000	    -12.86844711	      2.93477113	    -10.21628305	     21.31265828	      0.99811749	     -4.60417456	     -3.58393950
      0.79150000	     -3.09869550	      4.04470904	     11.51886544	      0.20410790	      0.96939941	      0.29215550	     30.22873776	     -7.24044148	     -5.69575321	    -13.42524512	      3.80037379	    -13.18450379	      9.91673602	    -20.88198865	      2.66403472	     11.43835488	    -13.98970302	      2.44969700	     -9.81066283	     21.60654661	      1.15843939	     -4.35139795	     -3.47463373
      0.79566667	     -3.07909488	      3.83407231	     11.37327678	      0.21067606	      0.96962595	      0.29296385	     30.31823727	     -6.91871008	     -5.64464947	    -14.26060895	      3.66311748	    -13.13932984	      9.88878218	    -20.59181530	      2.45977955	     10.87265207	    -15.09504837	      1.85108103	     -9.50070749	     22.03015739	      1.27056098	     -4.06371767	     -3.41357744
      0.79983333	     -3.03478146	      3.61518450	     11.21801848	      0.21723433	      0.96993477	      0.29382361	     30.35423192	     -6.56900668	     -5.54012010	    -15.03926759	      3.48538736	    -13.19271926	      9.37571913	    -20.30932353	      2.23776284	     10.30423190	    -16.20176763	      1.08856264	     -9.35562237	     28.32369704	      1.33716883	     -3.77028822	     -3.42216534
